<?xml version="1.0" encoding="UTF-8" standalone="no"?>
<!-- Created with Inkscape (http://www.inkscape.org/) -->

<svg
   width="272.33319"
   height="355.94559"
   viewBox="0 0 272.3332 355.94559"
   version="1.1"
   id="svg5"
   xml:space="preserve"
   sodipodi:docname="mac_hub_2.svg"
   inkscape:version="1.4 (e7c3feb100, 2024-10-09)"
   xmlns:inkscape="http://www.inkscape.org/namespaces/inkscape"
   xmlns:sodipodi="http://sodipodi.sourceforge.net/DTD/sodipodi-0.dtd"
   xmlns="http://www.w3.org/2000/svg"
   xmlns:svg="http://www.w3.org/2000/svg"><sodipodi:namedview
     id="namedview1"
     pagecolor="#ffffff"
     bordercolor="#000000"
     borderopacity="0.25"
     inkscape:showpageshadow="2"
     inkscape:pageopacity="0.0"
     inkscape:pagecheckerboard="0"
     inkscape:deskcolor="#d1d1d1"
     inkscape:zoom="1.1237673"
     inkscape:cx="53.83677"
     inkscape:cy="171.74375"
     inkscape:window-width="1920"
     inkscape:window-height="1011"
     inkscape:window-x="0"
     inkscape:window-y="32"
     inkscape:window-maximized="1"
     inkscape:current-layer="svg5"><inkscape:page
       x="0"
       y="0"
       width="272.33319"
       height="355.94559"
       id="page2"
       margin="0"
       bleed="0" /></sodipodi:namedview><defs
     id="defs2" /><g
     id="g3061"
     transform="matrix(0.93015406,0,0,0.93015406,49.186508,-12.599787)"
     style="display:inline"><rect
       style="display:none;fill:#f6f5f4;fill-opacity:1;stroke:#ffffff;stroke-width:3.61496;stroke-linecap:square;stroke-linejoin:bevel;stroke-opacity:1;paint-order:stroke markers fill"
       id="rect12"
       width="268.71823"
       height="352.33066"
       x="176.41118"
       y="45.250248"
       transform="matrix(1.0750907,0,0,1.0750907,-240.59477,-33.159003)" /><g
       aria-label="HUB"
       id="text3114"
       style="font-weight:300;font-size:53.3333px;font-family:'Inter Variable';-inkscape-font-specification:'Inter Variable Light';display:inline;fill:#000000;fill-opacity:1;stroke:#000000;stroke-width:10;stroke-linecap:round"
       transform="matrix(2.1352626,0,0,2.1352626,-10.192952,-641.92655)"><path
         d="m 20.494632,435.38531 v -38.80206 h 2.369791 v 17.86458 h 23.359361 v -17.86458 h 2.343748 v 38.80206 H 46.223784 V 416.63533 H 22.864423 v 18.74998 z"
         style="-inkscape-font-specification:'Inter Variable Ultra-Light';fill:#000000;fill-opacity:1;stroke:none"
         id="path3116" /><path
         d="m 60.572734,455.93219 q -4.166665,0 -7.421871,-1.79688 -3.229165,-1.79687 -5.078122,-4.89583 -1.848957,-3.09895 -1.848957,-7.05729 v -25.54686 h 2.36979 v 25.4427 q 0,3.33333 1.510416,5.96354 1.536457,2.60416 4.244789,4.11458 2.708332,1.51041 6.223955,1.51041 3.515622,0 6.197912,-1.51041 2.708332,-1.51042 4.24479,-4.11458 1.536457,-2.63021 1.536457,-5.96354 v -25.4427 h 2.343749 v 25.54686 q 0,3.95834 -1.848958,7.08333 -1.822915,3.09896 -5.078122,4.89583 -3.229164,1.77084 -7.395828,1.77084 z"
         style="-inkscape-font-specification:'Inter Variable Ultra-Light';fill:#000000;fill-opacity:1;stroke:none"
         id="path3118" /><path
         d="m 72.531318,474.18737 v -38.80206 h 12.734369 q 3.61979,0 6.27604,1.22396 2.68229,1.19792 4.14062,3.4375 1.48437,2.23958 1.48437,5.33854 0,2.26562 -0.88541,4.08854 -0.88542,1.79687 -2.39583,3.02083 -1.51042,1.22396 -3.38542,1.82292 v 0.026 q 2.13542,0.33854 4.01041,1.53645 1.875,1.17188 3.02084,3.125 1.17187,1.95313 1.17187,4.6875 0,3.125 -1.48437,5.49479 -1.45834,2.36979 -4.24479,3.69791 -2.78646,1.30208 -6.77083,1.30208 z m 2.369791,-2.18749 h 11.302078 q 4.79166,0 7.44791,-2.23959 2.68229,-2.23958 2.68229,-6.01562 0,-2.57812 -1.35417,-4.40104 -1.35416,-1.82291 -3.64583,-2.78645 -2.26562,-0.98959 -5.05208,-0.98959 H 74.901109 Z m 0,-18.61978 h 11.302078 q 2.57812,0 4.5052,-1.04167 1.95313,-1.06771 3.02084,-2.86458 1.09374,-1.79688 1.09374,-3.98437 0,-3.75 -2.60416,-5.83333 -2.60417,-2.08334 -6.90104,-2.08334 H 74.901109 Z"
         style="-inkscape-font-specification:'Inter Variable Ultra-Light';fill:#000000;fill-opacity:1;stroke:none"
         id="path3120" /></g><g
       id="g12"
       transform="matrix(1.0750907,0,0,1.0750907,-240.59478,-33.159003)"><path
         id="path14"
         style="fill:none;stroke:#000000;stroke-width:5.95717;stroke-linecap:square;stroke-linejoin:bevel;stroke-opacity:1;paint-order:stroke markers fill"
         d="m 193.25468,197.3869 c 7.7236,-57.95693 57.20625,-101.21356 115.67549,-101.12093 58.46923,0.0926 107.81457,43.50583 115.3545,101.48693 0,0 -35.25137,-3.65458 -52.71861,-1.6533 -21.52476,2.46617 -62.82047,16.67814 -62.82047,16.67814 0,0 -41.33997,-14.33952 -62.89935,-16.87256 -17.41766,-2.04643 -52.59156,1.48172 -52.59156,1.48172 z" /><circle
         style="fill:none;fill-opacity:1;stroke:#000000;stroke-width:4.1472;stroke-linecap:square;stroke-linejoin:bevel;stroke-opacity:1;paint-order:stroke markers fill"
         id="path7"
         cx="308.56708"
         cy="91.130836"
         r="6.1265521" /><path
         style="fill:none;fill-opacity:1;stroke:#000000;stroke-width:4.4;stroke-linecap:square;stroke-linejoin:bevel;stroke-opacity:1;paint-order:stroke markers fill"
         d="m 278.41345,121.05051 c 0,0 -18.79524,14.82302 -23.99421,25.188 -5.13779,10.24303 -5.77231,33.88995 -5.77231,33.88995"
         id="path8" /><path
         style="fill:none;fill-opacity:1;stroke:#000000;stroke-width:4.4;stroke-linecap:square;stroke-linejoin:bevel;stroke-opacity:1;paint-order:stroke markers fill"
         d="m 308.56409,118.41093 0.006,66.15322"
         id="path10" /><path
         style="display:none;fill:none;fill-opacity:1;stroke:#000000;stroke-width:4.4;stroke-linecap:square;stroke-linejoin:bevel;stroke-opacity:1;paint-order:stroke markers fill"
         d="m 346,119.75 36,55.5"
         id="path11" /><path
         style="fill:none;fill-opacity:1;stroke:#000000;stroke-width:4.4;stroke-linecap:square;stroke-linejoin:bevel;stroke-opacity:1;paint-order:stroke markers fill"
         d="m 338.72073,121.05051 c 0,0 18.79524,14.82302 23.99421,25.188 5.13779,10.24303 5.77231,33.88995 5.77231,33.88995"
         id="path12" /></g></g></svg>
