<?xml version="1.0" encoding="UTF-8" standalone="no"?>
<svg
   width="72.343498"
   height="72.343498"
   viewBox="0 0 72.343498 72.343498"
   fill="none"
   version="1.1"
   id="svg36"
   sodipodi:docname="logo-mac.svg"
   xmlns:inkscape="http://www.inkscape.org/namespaces/inkscape"
   xmlns:sodipodi="http://sodipodi.sourceforge.net/DTD/sodipodi-0.dtd"
   xmlns="http://www.w3.org/2000/svg"
   xmlns:svg="http://www.w3.org/2000/svg">
  <defs
     id="defs36" />
  <sodipodi:namedview
     id="namedview36"
     pagecolor="#ffffff"
     bordercolor="#000000"
     borderopacity="0.25"
     inkscape:showpageshadow="2"
     inkscape:pageopacity="0.0"
     inkscape:pagecheckerboard="0"
     inkscape:deskcolor="#d1d1d1">
    <inkscape:page
       x="0"
       y="0"
       width="72.343498"
       height="72.343498"
       id="page2"
       margin="0"
       bleed="0" />
  </sodipodi:namedview>
  <path
     d="M 0,36.1718 C 0,16.1964 16.1964,0 36.1718,0 56.1471,0 72.3435,16.1964 72.3435,36.1718 72.3435,56.1471 56.1471,72.3435 36.1718,72.3435 16.1964,72.3435 0,56.1497 0,36.1718 Z"
     fill="#000000"
     id="path35" />
  <path
     d="m 30.8384,45.4202 5.4381,-8.7486 4.0432,-6.5424 h 0.0366 c 0.3664,1.9837 0.9186,4.6294 1.3216,6.5791 l 1.7638,8.7119 H 30.8358 Z M 59.2011,42.497 H 58.963 l -0.0341,0.0314 c -2.1511,1.9811 -4.5299,2.986 -7.0762,2.986 -5.0168,0 -8.657,-3.9229 -8.657,-9.3269 0,-5.404 3.6298,-9.2719 8.6282,-9.2719 2.4913,0 4.844,1.0049 6.9899,2.9859 l 0.034,0.0314 h 0.2382 l 0.1596,-1.3137 -0.0471,-0.0419 c -2.2035,-1.9496 -4.7053,-2.9388 -7.4322,-2.9388 -4.7236,0 -8.3795,2.9964 -9.5415,7.4557 l -1.0651,-5.0219 h -0.8819 l -5.1423,8.0995 V 18.905 H 33.4737 L 25.785,33.8505 18.0964,18.905 h -1.633 v 22.3333 h 1.243 V 20.7762 c 0.793,1.4812 1.6173,3.0723 2.6432,5.0926 l 5.2104,10.1486 0.034,0.0654 h 0.3899 l 5.2418,-10.2114 2.6431,-5.0822 v 17.3872 l -10.0858,15.8824 0.0367,0.1099 h 1.544 l 4.6687,-7.4976 h 13.671 l 1.5074,7.4976 h 1.3975 l 0.0732,-0.0733 -2.227,-10.5123 c 1.7743,2.0072 4.3337,3.2084 7.3197,3.2084 2.7687,0 5.3778,-1.0259 7.5447,-2.9651 l 0.0471,-0.0418 -0.1596,-1.285 z"
     fill="#ffffff"
     id="path36" />
</svg>
