<?xml version="1.0" encoding="UTF-8" standalone="no"?>
<!-- Created with Inkscape (http://www.inkscape.org/) -->

<svg
   width="286.15015"
   height="479.70636"
   viewBox="0 0 286.15015 479.70636"
   version="1.1"
   id="svg5"
   xml:space="preserve"
   inkscape:version="1.2.2 (b0a8486541, 2022-12-01)"
   sodipodi:docname="mac_hub.svg"
   inkscape:export-filename="mac_hub_2.svg"
   inkscape:export-xdpi="96"
   inkscape:export-ydpi="96"
   xmlns:inkscape="http://www.inkscape.org/namespaces/inkscape"
   xmlns:sodipodi="http://sodipodi.sourceforge.net/DTD/sodipodi-0.dtd"
   xmlns="http://www.w3.org/2000/svg"
   xmlns:svg="http://www.w3.org/2000/svg"><sodipodi:namedview
     id="namedview7"
     pagecolor="#ffffff"
     bordercolor="#000000"
     borderopacity="0.25"
     inkscape:showpageshadow="2"
     inkscape:pageopacity="0.0"
     inkscape:pagecheckerboard="0"
     inkscape:deskcolor="#d1d1d1"
     inkscape:document-units="px"
     showgrid="false"
     inkscape:zoom="1"
     inkscape:cx="143.5"
     inkscape:cy="261"
     inkscape:window-width="1920"
     inkscape:window-height="1011"
     inkscape:window-x="0"
     inkscape:window-y="32"
     inkscape:window-maximized="1"
     inkscape:current-layer="svg5"
     showguides="true"><inkscape:grid
       type="xygrid"
       id="grid868" /></sodipodi:namedview><defs
     id="defs2" /><g
     id="g3061"
     transform="matrix(1.4453089,0,0,1.4453089,-26.122,-70.621951)"
     inkscape:label="LOGO 1"
     style="display:inline"
     inkscape:export-filename="./g3061.png"
     inkscape:export-xdpi="96"
     inkscape:export-ydpi="96"><rect
       style="fill:#000000;fill-opacity:1;stroke:none;stroke-width:10.3469;stroke-linecap:round;stroke-dasharray:none;stroke-opacity:1"
       id="rect3045"
       width="197.98544"
       height="331.90576"
       x="18.073643"
       y="48.862877"
       ry="0" /><g
       id="g1243"
       inkscape:label="mac"
       transform="matrix(2.2159594,0,0,2.2159594,84.57631,-79.967871)"
       style="display:inline;fill:#ffffff;fill-opacity:1"><path
         d="M 2.2319875,110.47034 11.784273,95.103052 18.88635,83.611008 h 0.06429 c 0.6436,3.484466 1.613566,8.131766 2.321455,11.556508 l 3.0982,15.302824 H 2.2274205 Z M 52.052444,105.33562 H 51.63421 l -0.0599,0.0552 c -3.778512,3.47989 -7.956989,5.24504 -12.429689,5.24504 -8.812252,0 -15.20644,-6.89074 -15.20644,-16.383109 0,-9.492388 6.37592,-16.286542 15.155852,-16.286542 4.376089,0 8.508721,1.765156 12.278098,5.244878 l 0.05972,0.05516 h 0.41841 l 0.280345,-2.307578 -0.08273,-0.0736 c -3.870554,-3.424567 -8.265087,-5.162145 -13.055019,-5.162145 -8.297233,0 -14.718998,5.263322 -16.760108,13.096299 L 20.361851,79.997964 H 18.81275 L 9.7800515,94.225128 V 63.895157 H 6.8610195 L -6.6445545,90.147652 -20.149954,63.895157 h -2.868444 v 39.229503 h 2.18339 V 67.182011 c 1.392943,2.601799 2.840866,5.396643 4.642909,8.945398 l 9.1523205,17.826508 0.05972,0.114878 h 0.684878 l 9.207476,-17.936819 4.642733,-8.92713 v 30.541458 l -17.7161965,27.898126 0.06446,0.19304 h 2.7121115 L 0.81620147,112.6676 H 24.829975 l 2.647821,13.16987 h 2.454777 l 0.128579,-0.12875 -3.911834,-18.46532 c 3.116644,3.52573 7.612355,5.63568 12.857408,5.63568 4.863356,0 9.446367,-1.80203 13.252632,-5.20831 l 0.08273,-0.0734 -0.280345,-2.25716 z"
         fill="#ffffff"
         id="path1241"
         style="fill:#ffffff;fill-opacity:1;stroke-width:1.75655" /></g><g
       aria-label="HUB"
       id="text3114"
       style="font-weight:300;font-size:53.3333px;font-family:'Inter Variable';-inkscape-font-specification:'Inter Variable Light';fill:#ffffff;fill-opacity:1;stroke:#000000;stroke-width:10;stroke-linecap:round"
       transform="matrix(2.1352626,0,0,2.1352626,-10.192952,-641.92655)"
       inkscape:label="HUB"><path
         d="m 20.494635,435.38531 v -38.80206 h 2.369791 v 17.86458 h 23.359361 v -17.86458 h 2.343748 v 38.80206 H 46.223787 V 416.63533 H 22.864426 v 18.74998 z"
         style="-inkscape-font-specification:'Inter Variable Ultra-Light';fill:#ffffff;fill-opacity:1;stroke:none"
         id="path3116" /><path
         d="m 60.572737,455.93219 q -4.166665,0 -7.421871,-1.79688 -3.229165,-1.79687 -5.078122,-4.89583 -1.848957,-3.09895 -1.848957,-7.05729 v -25.54686 h 2.36979 v 25.4427 q 0,3.33333 1.510416,5.96354 1.536457,2.60416 4.244789,4.11458 2.708332,1.51041 6.223955,1.51041 3.515622,0 6.197912,-1.51041 2.708332,-1.51042 4.24479,-4.11458 1.536457,-2.63021 1.536457,-5.96354 v -25.4427 h 2.343749 v 25.54686 q 0,3.95834 -1.848958,7.08333 -1.822915,3.09896 -5.078122,4.89583 -3.229164,1.77084 -7.395828,1.77084 z"
         style="-inkscape-font-specification:'Inter Variable Ultra-Light';fill:#ffffff;fill-opacity:1;stroke:none"
         id="path3118" /><path
         d="M 72.531321,474.18737 V 435.38531 H 85.26569 q 3.61979,0 6.27604,1.22396 2.68229,1.19792 4.14062,3.4375 1.48437,2.23958 1.48437,5.33854 0,2.26562 -0.88541,4.08854 -0.88542,1.79687 -2.39583,3.02083 -1.51042,1.22396 -3.38542,1.82292 v 0.026 q 2.13542,0.33854 4.01041,1.53645 1.875,1.17188 3.02084,3.125 1.17187,1.95313 1.17187,4.6875 0,3.125 -1.48437,5.49479 -1.45834,2.36979 -4.24479,3.69791 -2.78646,1.30208 -6.77083,1.30208 z m 2.369791,-2.18749 H 86.20319 q 4.79166,0 7.44791,-2.23959 2.68229,-2.23958 2.68229,-6.01562 0,-2.57812 -1.35417,-4.40104 -1.35416,-1.82291 -3.64583,-2.78645 -2.26562,-0.98959 -5.05208,-0.98959 H 74.901112 Z m 0,-18.61978 H 86.20319 q 2.57812,0 4.5052,-1.04167 1.95313,-1.06771 3.02084,-2.86458 1.09374,-1.79688 1.09374,-3.98437 0,-3.75 -2.60416,-5.83333 -2.60417,-2.08334 -6.90104,-2.08334 H 74.901112 Z"
         style="-inkscape-font-specification:'Inter Variable Ultra-Light';fill:#ffffff;fill-opacity:1;stroke:none"
         id="path3120" /></g></g></svg>
